<svg height="512pt" viewBox="0 0 512.00089 512" width="512pt" xmlns="http://www.w3.org/2000/svg"><path d="m170.667969 298.667969c-3.234375 0-6.1875 1.824219-7.636719 4.714843l-17.066406 34.136719c-1.320313 2.644531-1.179688 5.785157.375 8.300781 1.554687 2.515626 4.300781 4.046876 7.257812 4.046876h204.800782c2.960937 0 5.707031-1.535157 7.257812-4.046876 1.554688-2.515624 1.699219-5.65625.378906-8.300781l-17.070312-34.136719c-1.445313-2.890624-4.398438-4.714843-7.632813-4.714843zm-3.261719 34.132812 8.535156-17.066406h160.117188l8.535156 17.066406zm0 0"/><path d="m8.535156 119.46875h76.800782c2.261718 0 4.429687-.902344 6.03125-2.5l11.035156-11.035156 28.097656 28.097656c1.601562 1.601562 3.769531 2.5 6.035156 2.5h34.132813c2.261719 0 4.433593-.898438 6.03125-2.5l28.101562-28.097656 11.03125 11.035156c8.722657 8.71875 20.179688 13.082031 31.636719 13.082031 11.453125 0 22.910156-4.363281 31.632812-13.082031 3.332032-3.335938 3.332032-8.734375 0-12.066406l-102.402343-102.402344c-1.597657-1.601562-3.769531-2.5-6.03125-2.5h-162.132813c-4.714844 0-8.535156 3.820312-8.535156 8.535156v102.398438c0 4.710937 3.820312 8.535156 8.535156 8.535156zm158.597656 0h-27.066406l-25.601562-25.601562 13.535156-13.535157 19.566406 19.570313c3.332032 3.332031 8.734375 3.332031 12.066406 0l19.566407-19.570313 13.535156 13.535157zm92.914063-9.484375c-10.40625 5.289063-23.460937 3.589844-32.148437-5.085937l-68.265626-68.265626c-3.332031-3.332031-8.734374-3.332031-12.066406 0-1.667968 1.667969-2.5 3.851563-2.5 6.03125 0 2.183594.832032 4.367188 2.5 6.035157l19.566406 19.566406-13.535156 13.535156-19.5625-19.570312c-3.335937-3.332031-8.734375-3.332031-12.066406 0l-40.167969 40.167969h-22.066406v-85.332032h107.398437zm-242.980469-92.917969h25.601563v85.335938h-25.601563zm0 0"/><path d="m264.53125 179.632812v-17.5h8.535156v-17.066406h-34.132812v17.066406h8.53125v17.5c-43.0625 4.296876-76.796875 40.726563-76.796875 84.902344v8.53125c0 4.714844 3.820312 8.535156 8.53125 8.535156h153.601562c4.710938 0 8.53125-3.820312 8.53125-8.535156v-8.53125c0-44.175781-33.738281-80.605468-76.800781-84.902344zm-76.796875 84.902344c0-37.644531 30.625-68.269531 68.265625-68.269531s68.265625 30.625 68.265625 68.269531zm0 0"/><path d="m503.464844 162.132812h-213.332032v17.066407h204.800782v196.269531h-477.867188v-196.269531h204.800782v-17.066407h-213.332032c-4.714844 0-8.535156 3.820313-8.535156 8.535157v213.332031c0 4.710938 3.820312 8.535156 8.535156 8.535156h221.863282v70.820313l-88.25 32.089843c-3.890626 1.417969-6.203126 5.421876-5.484376 9.5.71875 4.078126 4.261719 7.054688 8.402344 7.054688h221.867188c4.140625 0 7.683594-2.976562 8.40625-7.054688.714844-4.078124-1.597656-8.082031-5.488282-9.5l-88.25-32.089843v-70.820313h221.867188c4.710938 0 8.53125-3.824218 8.53125-8.535156v-213.332031c0-4.714844-3.820312-8.535157-8.535156-8.535157zm-309.960938 332.800782 46.933594-17.066406h31.125l46.933594 17.066406zm71.027344-34.132813h-17.066406v-68.265625h17.066406zm0 0"/><path d="m224.195312 236.09375-12.714843-11.382812c11.324219-12.652344 27.550781-19.910157 44.519531-19.910157v17.066407c-12.121094 0-23.714844 5.183593-31.804688 14.226562zm0 0"/><path d="m213.332031 264.535156h-17.066406c0-6.835937 1.148437-13.53125 3.402344-19.914062l16.089843 5.691406c-1.609374 4.550781-2.425781 9.332031-2.425781 14.222656zm0 0"/></svg>