<svg height="421pt" viewBox="0 -100 421.91701 421" width="421pt" xmlns="http://www.w3.org/2000/svg"><path d="m129.703125 14.113281h61.441406c3.769531 0 6.828125-3.054687 6.828125-6.828125 0-3.773437-3.058594-6.828125-6.828125-6.828125h-61.441406c-3.769531 0-6.824219 3.054688-6.824219 6.828125 0 3.773438 3.054688 6.828125 6.824219 6.828125zm0 0"/><path d="m75.089844 34.59375h95.574218c3.769532 0 6.828126-3.054688 6.828126-6.828125s-3.058594-6.828125-6.828126-6.828125h-95.574218c-3.769532 0-6.824219 3.054688-6.824219 6.828125s3.054687 6.828125 6.824219 6.828125zm0 0"/><path d="m392.46875 116.605469c-39.96875-2.351563-79.523438-13.984375-114.386719-33.648438l-4.554687-2.566406c-24.011719-13.53125-50.890625-21.75-77.734375-23.753906-39.457031-2.957031-95.148438-2.484375-136.386719 16.574219-3.15625 1.460937-4.714844 5.0625-3.613281 8.359374l2.113281 6.335938c-22.027344 2.03125-39.710938 19.273438-42.421875 41.089844-8.957031 2.769531-15.484375 11.121094-15.484375 20.976562v35.285156c0 3.773438 3.054688 6.828126 6.828125 6.828126h34.65625c4.214844 17.324218 19.820313 30.238281 38.421875 30.238281 13.230469 0 24.9375-6.546875 32.132812-16.546875h202.246094c.195313 0 .359375-.09375.550782-.109375 7.183593 10.0625 18.933593 16.660156 32.210937 16.660156 13.230469 0 24.9375-6.546875 32.128906-16.546875h35.914063c3.769531 0 6.828125-3.054688 6.828125-6.828125v-51.113281c0-16.546875-12.9375-30.269532-29.449219-31.234375zm-312.5625 92.066406c-14.296875 0-25.929688-11.632813-25.929688-25.933594 0-14.304687 11.632813-25.9375 25.929688-25.9375 14.300781 0 25.9375 11.632813 25.9375 25.9375 0 14.300781-11.636719 25.933594-25.9375 25.933594zm267.140625 0c-14.300781 0-25.9375-11.632813-25.9375-25.933594 0-14.304687 11.636719-25.9375 25.9375-25.9375s25.9375 11.632813 25.9375 25.9375c0 14.300781-11.636719 25.933594-25.9375 25.933594zm38.417969-16.546875c.738281-3.015625 1.171875-6.148438 1.171875-9.386719 0-21.832031-17.757813-39.59375-39.585938-39.59375-21.832031 0-39.589843 17.761719-39.589843 39.59375 0 3.238281.433593 6.371094 1.171874 9.386719h-190.304687c.734375-3.015625 1.171875-6.148438 1.171875-9.386719 0-21.832031-17.761719-39.59375-39.589844-39.59375-20.371094 0-37.1875 15.472657-39.34375 35.289063h-26.914062v-28.460938c0-4.574218 3.71875-8.292968 8.292968-8.292968 3.769532 0 6.824219-3.054688 6.824219-6.828126 0-18.464843 15.027344-33.492187 33.5-33.492187h5.039063c2.191406 0 4.25-1.050781 5.535156-2.832031s1.632812-4.074219.941406-6.152344l-3.0625-9.1875c38.011719-15.425781 88.003906-15.625 124.050782-12.933594 24.859374 1.859375 49.769531 9.472656 72.046874 22.035156l4.554688 2.566407c36.664062 20.671875 78.257812 32.90625 120.292969 35.378906 7.921875.464844 14.335937 6.15625 16.082031 13.585937h-11.804688c-3.769531 0-6.828124 3.054688-6.828124 6.828126 0 3.773437 3.058593 6.824218 6.828124 6.824218h12.320313v34.65625h-22.800781zm0 0"/><path d="m93.636719 100.125c51.574219 36.097656 199.265625 36.511719 205.527343 36.511719 3.167969 0 5.917969-2.175781 6.644532-5.257813.726562-3.082031-.757813-6.261718-3.589844-7.671875l-70.105469-35.027343c-12.941406-7.765626-42.898437-8.539063-71.464843-7.117188-.363282-.058594-.691407-.214844-1.070313-.214844-.640625 0-1.214844.199219-1.804687.363282-28.878907 1.585937-55.695313 5.277343-61.1875 6.0625-2.773438.398437-5.023438 2.445312-5.671876 5.171874-.648437 2.726563.425782 5.574219 2.722657 7.179688zm131.910156.511719 43.050781 21.519531c-26.667968-1.167969-66.546875-3.992188-102.195312-10.785156v-16.375c26.300781-1.039063 49.882812.097656 59.144531 5.640625zm-72.796875-4.925781v12.796874c-11.984375-2.753906-23.195312-6.011718-32.835938-9.914062 10.53125-1.167969 21.746094-2.175781 32.835938-2.882812zm0 0"/><path d="m324.285156 128.363281c-18.667968 7.515625-31.941406 23.859375-35.207031 42.707031l-16.023437-.085937-134.980469.132813c-4.605469-26.851563-28.898438-47.046876-58.023438-47.046876-23.632812 0-44.878906 13.445313-54.132812 34.253907-1.53125 3.445312.019531 7.480469 3.464843 9.011719 3.433594 1.53125 7.480469-.019532 9.007813-3.464844 7.066406-15.882813 23.417969-26.148438 41.65625-26.148438 24.148437 0 43.960937 17.820313 45.105469 40.570313.179687 3.632812 3.179687 6.484375 6.816406 6.484375h.007812l141.046876-.140625 22.113281.121093h.035156c3.640625 0 6.648437-2.859374 6.820313-6.5.773437-16.234374 11.523437-30.847656 27.386718-37.226562 3.496094-1.40625 5.191406-5.386719 3.785156-8.878906-1.40625-3.5-5.367187-5.1875-8.878906-3.789063zm0 0"/><path d="m347.046875 164.066406c-10.296875 0-18.671875 8.378906-18.671875 18.671875s8.375 18.671875 18.671875 18.671875 18.671875-8.378906 18.671875-18.671875-8.375-18.671875-18.671875-18.671875zm0 23.691406c-2.765625 0-5.019531-2.253906-5.019531-5.019531s2.253906-5.019531 5.019531-5.019531 5.019531 2.253906 5.019531 5.019531-2.253906 5.019531-5.019531 5.019531zm0 0"/><path d="m79.90625 164.066406c-10.292969 0-18.671875 8.378906-18.671875 18.671875s8.378906 18.671875 18.671875 18.671875c10.300781 0 18.675781-8.378906 18.675781-18.671875s-8.375-18.671875-18.675781-18.671875zm0 23.691406c-2.765625 0-5.019531-2.253906-5.019531-5.019531s2.253906-5.019531 5.019531-5.019531c2.773438 0 5.023438 2.253906 5.023438 5.019531s-2.25 5.019531-5.023438 5.019531zm0 0"/></svg>