<svg height="496pt" viewBox="0 0 496 496" width="496pt" xmlns="http://www.w3.org/2000/svg"><path d="m296 160c0 4.417969-3.582031 8-8 8s-8-3.582031-8-8 3.582031-8 8-8 8 3.582031 8 8zm0 0"/><path d="m216 160c0 4.417969-3.582031 8-8 8s-8-3.582031-8-8 3.582031-8 8-8 8 3.582031 8 8zm0 0"/><path d="m248 232c17.648438 0 32-14.351562 32-32h-16c0 8.824219-7.175781 16-16 16s-16-7.175781-16-16h-16c0 17.648438 14.351562 32 32 32zm0 0"/><path d="m416 400h16v-64.167969c0-26.9375-19.207031-50.078125-45.679688-55.039062l-82.320312-15.433594v-16.328125c11.3125-11.101562 19.335938-25.527344 22.488281-41.6875 18.960938-3.128906 33.511719-19.511719 33.511719-39.34375v-68.222656c0-24.671875-13.464844-46.898438-35.230469-58.328125l-10.945312-10.945313c-19.671875-19.671875-45.832031-30.503906-73.65625-30.503906-57.441407 0-104.167969 46.726562-104.167969 104.167969v63.832031c0 19.832031 14.550781 36.214844 33.511719 39.34375 3.152343 16.160156 11.175781 30.585938 22.488281 41.6875v16.328125l-49.480469 9.28125.136719.703125-94.65625-94.65625v-4.6875c0-19.3125-13.769531-35.472656-32-39.191406v-48.808594h-16v240h16v-56.808594c8.953125-1.824218 16.695312-6.757812 22.390625-13.488281l40.363281 40.359375c-9.417968 10.257812-14.753906 23.609375-14.753906 37.769531v64.167969h16v80h-48v16h432v-16h-48zm-88-209.472656v-45.046875c9.289062 3.3125 16 12.113281 16 22.527343 0 10.417969-6.710938 19.207032-16 22.519532zm-87.832031-174.527344c23.550781 0 45.695312 9.167969 62.34375 25.824219l12.761719 12.75 1.160156.585937c17 8.503906 27.566406 25.601563 27.566406 44.617188v36.421875c-4.671875-3.535157-10.054688-6.183594-16-7.390625v-16.808594h-16v7.480469c-9.9375-1.410157-19.121094-5.921875-26.34375-13.136719l-4.632812-4.640625-5.464844 3.640625c-14.382813 9.59375-31.109375 14.65625-48.398438 14.65625h-43.160156v-8h-16v16.808594c-5.945312 1.214844-11.328125 3.855468-16 7.390625v-32.039063c0-48.609375 39.542969-88.160156 88.167969-88.160156zm-88.167969 152c0-10.414062 6.710938-19.214844 16-22.527344v45.046875c-9.289062-3.304687-16-12.105469-16-22.519531zm32 24v-56h43.160156c18.359375 0 36.191406-4.832031 51.960938-14.023438 9.421875 7.695313 20.78125 12.375 32.878906 13.640626v56.382812c0 35.289062-28.710938 64-64 64s-64-28.710938-64-64zm64 80c14.574219 0 28.214844-3.984375 40-10.824219v8.136719c-4.046875 4.917969-17.375 18.6875-40 18.6875-22.671875 0-35.929688-13.710938-40-18.6875v-8.136719c11.785156 6.839844 25.425781 10.824219 40 10.824219zm-51.246094 8.753906c6.789063 7.757813 23.765625 23.246094 51.246094 23.246094s44.457031-15.488281 51.246094-23.246094l84.121094 15.773438c18.90625 3.535156 32.632812 20.074218 32.632812 39.304687v48.167969h-48v-56h-16v52.390625c-20.726562-36.023437-59.535156-60.390625-104-60.390625-17.761719 0-34.574219 3.984375-49.753906 10.9375l-42.492188-42.496094zm-20.289062 151.292969c1.085937-9.871094 4.199218-19.125 8.878906-27.390625l75.34375 75.34375h-57.136719c2.753907-4.726562 4.449219-10.144531 4.449219-16 0-17.488281-14.105469-31.695312-31.535156-31.953125zm18.414062-40.480469c6.6875-7.328125 14.832032-13.285156 24.007813-17.367187l73.640625 73.640625c-2.808594 4.769531-4.527344 10.238281-4.527344 16.160156 0 5.855469 1.695312 11.273438 4.449219 16h-9.136719zm108.96875 44.96875-67.503906-67.503906c3.800781-.625 7.679688-1.03125 11.65625-1.03125 37.015625 0 67.558594 28.078125 71.535156 64.046875-5.734375.082031-11.054687 1.753906-15.6875 4.488281zm31.746094-4.535156c-4.058594-44.785156-41.769531-80-87.59375-80s-83.535156 35.214844-87.59375 80h-16c4.113281-53.609375 48.953125-96 103.59375-96s99.480469 42.390625 103.59375 96zm-184.882812-61.976562c-2.40625 3.335937-4.65625 6.785156-6.710938 10.359374v-17.070312zm-118.710938-138.023438c0 10.414062-6.710938 19.214844-16 22.527344v-101.054688c9.289062 3.3125 16 12.113282 16 22.527344zm16 0v-28.6875l135.601562 135.597656c-8.304687 5.3125-15.898437 11.601563-22.648437 18.730469l-114.671875-114.671875c1.007812-3.511719 1.71875-7.136719 1.71875-10.96875zm80 115.3125v36.6875h-48v-48.167969c0-9.878906 3.640625-19.199219 10.0625-26.457031zm-32 132.6875v-80h32v32h-16v16h64c8.824219 0 16 7.175781 16 16s-7.175781 16-16 16zm208-16c0-8.824219 7.175781-16 16-16h64v-16h-16v-32h32v80h-80c-8.824219 0-16-7.175781-16-16zm0 0"/><path d="m480 480h16v16h-16zm0 0"/><path d="m0 480h16v16h-16zm0 0"/></svg>