<?xml version="1.0" encoding="iso-8859-1"?>
<!-- Generator: Adobe Illustrator 19.0.0, SVG Export Plug-In . SVG Version: 6.00 Build 0)  -->
<svg version="1.1" id="Capa_1" xmlns="http://www.w3.org/2000/svg" xmlns:xlink="http://www.w3.org/1999/xlink" x="0px" y="0px"
	 viewBox="0 0 477.867 477.867" style="enable-background:new 0 0 477.867 477.867;" xml:space="preserve">
<g>
	<g>
		<path d="M460.8,119.467h-85.333v-102.4C375.467,7.641,367.826,0,358.4,0H17.067C7.641,0,0,7.641,0,17.067V409.6
			c0,37.703,30.564,68.267,68.267,68.267H409.6c37.703,0,68.267-30.564,68.267-68.267V136.533
			C477.867,127.108,470.226,119.467,460.8,119.467z M68.267,443.733c-18.851,0-34.133-15.282-34.133-34.133V34.133h307.2V409.6
			c0.041,4.114,0.458,8.216,1.246,12.254c0.171,0.973,0.358,1.929,0.58,2.884c0.843,3.866,2.019,7.652,3.516,11.315
			c0,0.171,0.171,0.324,0.239,0.478c1.05,2.47,2.247,4.875,3.584,7.202H68.267z M443.733,409.6
			c0,18.851-15.282,34.133-34.133,34.133s-34.133-15.282-34.133-34.133v-256h68.267V409.6z"/>
	</g>
</g>
<g>
	<g>
		<path d="M238.933,85.333h-102.4c-9.426,0-17.067,7.641-17.067,17.067s7.641,17.067,17.067,17.067h102.4
			c9.426,0,17.067-7.641,17.067-17.067S248.359,85.333,238.933,85.333z"/>
	</g>
</g>
<g>
	<g>
		<path d="M290.133,170.667h-204.8c-9.426,0-17.067,7.641-17.067,17.067c0,9.426,7.641,17.067,17.067,17.067h204.8
			c9.426,0,17.067-7.641,17.067-17.067C307.2,178.308,299.559,170.667,290.133,170.667z"/>
	</g>
</g>
<g>
	<g>
		<path d="M290.133,238.933h-204.8c-9.426,0-17.067,7.641-17.067,17.067c0,9.426,7.641,17.067,17.067,17.067h204.8
			c9.426,0,17.067-7.641,17.067-17.067C307.2,246.574,299.559,238.933,290.133,238.933z"/>
	</g>
</g>
<g>
	<g>
		<path d="M290.133,307.2h-204.8c-9.426,0-17.067,7.641-17.067,17.067c0,9.426,7.641,17.067,17.067,17.067h204.8
			c9.426,0,17.067-7.641,17.067-17.067C307.2,314.841,299.559,307.2,290.133,307.2z"/>
	</g>
</g>
<g>
	<g>
		<path d="M290.133,375.467h-204.8c-9.426,0-17.067,7.641-17.067,17.067S75.908,409.6,85.333,409.6h204.8
			c9.426,0,17.067-7.641,17.067-17.067S299.559,375.467,290.133,375.467z"/>
	</g>
</g>
<g>
</g>
<g>
</g>
<g>
</g>
<g>
</g>
<g>
</g>
<g>
</g>
<g>
</g>
<g>
</g>
<g>
</g>
<g>
</g>
<g>
</g>
<g>
</g>
<g>
</g>
<g>
</g>
<g>
</g>
</svg>
