<?xml version="1.0" encoding="utf-8"?>
<!-- Generator: Adobe Illustrator 24.0.1, SVG Export Plug-In . SVG Version: 6.00 Build 0)  -->
<svg version="1.1" id="Capa_1" xmlns="http://www.w3.org/2000/svg" xmlns:xlink="http://www.w3.org/1999/xlink" x="0px" y="0px"
	 viewBox="0 0 366.6 366.6" style="enable-background:new 0 0 366.6 366.6;" xml:space="preserve">
<style type="text/css">
	.st0{fill:#FFFFFF;}
	.st1{font-family:'Poppins-Medium';}
	.st2{font-size:211.893px;}
</style>
<g>
	<g>
		<path class="st0" d="M146.5,40.9l25.2,37.5l5.9,8.9h10.7h155.2v233.6H23.1v-280H146.5 M151,20.9H14.6C8.3,20.9,3.1,26,3.1,32.4
			v297c0,6.4,5.2,11.5,11.5,11.5H352c6.4,0,11.5-5.2,11.5-11.5V78.9c0-6.4-5.2-11.6-11.5-11.6H188.3L160.6,26
			C158.5,22.8,154.9,20.9,151,20.9L151,20.9z"/>
	</g>
	<g>
		<path class="st0" d="M156.6,113.8l-24,24l24,24c5.5,5.5,5.5,14.5,0,20c-2.8,2.8-6.4,4.2-10.1,4.2s-7.3-1.4-10.1-4.2l-24-24l-24,24
			c-2.8,2.8-6.4,4.2-10.1,4.2c-3.7,0-7.3-1.4-10.1-4.2c-5.5-5.5-5.5-14.5,0-20l24-24l-23.9-24c-5.5-5.5-5.5-14.5,0-20
			c5.5-5.5,14.5-5.5,20,0l24,24l24-24c5.5-5.5,14.5-5.5,20,0C162.1,99.2,162.1,108.2,156.6,113.8z"/>
	</g>
	<text transform="matrix(1 0 0 1 200.6356 295.0254)" class="st0 st1 st2">?</text>
</g>
</svg>
