<?xml version="1.0" encoding="utf-8"?>
<!-- Generator: Adobe Illustrator 24.0.1, SVG Export Plug-In . SVG Version: 6.00 Build 0)  -->
<svg version="1.1"
	 id="svg2" xmlns:cc="http://creativecommons.org/ns#" xmlns:dc="http://purl.org/dc/elements/1.1/" xmlns:inkscape="http://www.inkscape.org/namespaces/inkscape" xmlns:rdf="http://www.w3.org/1999/02/22-rdf-syntax-ns#" xmlns:sodipodi="http://sodipodi.sourceforge.net/DTD/sodipodi-0.dtd" xmlns:svg="http://www.w3.org/2000/svg"
	 xmlns="http://www.w3.org/2000/svg" xmlns:xlink="http://www.w3.org/1999/xlink" x="0px" y="0px" viewBox="0 0 32 32"
	 style="enable-background:new 0 0 32 32;" xml:space="preserve">
<style type="text/css">
	.st0{fill:none;}
	.st1{fill:#FFFFFF;}
	.st2{font-family:'Comfortaa-SemiBold';}
	.st3{font-size:17.848px;}
	.st4{font-family:'Poppins-Medium';}
	.st5{font-size:18.9635px;}
</style>
<g id="background">
	<rect class="st0" width="32" height="32"/>
</g>
<g id="notes_x5F_cancel">
	<path class="st1" d="M27.2,13.2V0.4H0.4v26.8h12.8c1.8,2.7,4.9,4.5,8.4,4.5c5.6,0,10-4.5,10-10C31.6,18.1,29.8,15,27.2,13.2z
		 M13.7,15.3c-0.8,1-1.3,2.1-1.7,3.3c-0.3,1-0.4,1.9-0.4,2.9c0,1.2,0.2,2.3,0.6,3.3H2.6V2.6h22.3v9.5c-1-0.3-2.1-0.6-3.3-0.6
		c-1.7,0-3.2,0.4-4.7,1.2c-0.7,0.3-1.3,0.9-2,1.5C14.4,14.5,14,14.9,13.7,15.3z M21.6,29.3c-4.2,0-7.7-3.5-7.7-7.7s3.5-7.7,7.7-7.7
		s7.7,3.5,7.7,7.7S25.8,29.3,21.6,29.3z"/>
	<text transform="matrix(1 0 0 1 16.9023 26.3476)" class="st1 st2 st3">x</text>
</g>
<text transform="matrix(1 0 0 1 5.1069 18.8955)" class="st1 st4 st5">?</text>
</svg>
