<?xml version="1.0" encoding="utf-8"?>
<!-- Generator: Adobe Illustrator 24.0.1, SVG Export Plug-In . SVG Version: 6.00 Build 0)  -->
<svg version="1.1" id="Layer_1" xmlns="http://www.w3.org/2000/svg" xmlns:xlink="http://www.w3.org/1999/xlink" x="0px" y="0px"
	 viewBox="0 0 30 30" style="enable-background:new 0 0 30 30;" xml:space="preserve">
<style type="text/css">
	.st0{fill:none;stroke:#FFFFFF;stroke-width:2;stroke-linecap:round;stroke-miterlimit:10;}
	.st1{fill:#FFFFFF;}
</style>
<g>
	<path class="st0" d="M21.1,24.2c-2.1,1.8-4.9,2.9-7.9,2.9C6.6,27.1,1.2,21.7,1.2,15S6.6,2.9,13.3,2.9S25.4,8.3,25.4,15
		c0,0.4,0,0.8-0.1,1.1"/>
	<polygon class="st1" points="25.4,20.5 21,13.9 29.8,13.9 	"/>
	<path class="st1" d="M17.7,21.6H8.9c-0.6,0-1.1-0.5-1.1-1.1V15c0-0.6,0.5-1.1,1.1-1.1h8.8c0.6,0,1.1,0.5,1.1,1.1v5.5
		C18.8,21.1,18.3,21.6,17.7,21.6z"/>
	<path class="st0" d="M16.4,10.6c-0.5-1.3-1.7-2.2-3.1-2.2c-1.8,0-3.3,1.5-3.3,3.3V15"/>
</g>
</svg>
