<?xml version="1.0" encoding="utf-8"?>
<!-- Generator: Adobe Illustrator 24.0.1, SVG Export Plug-In . SVG Version: 6.00 Build 0)  -->
<svg version="1.1" id="Layer_1" xmlns="http://www.w3.org/2000/svg" xmlns:xlink="http://www.w3.org/1999/xlink" x="0px" y="0px"
	 viewBox="0 0 24 24" style="enable-background:new 0 0 24 24;" xml:space="preserve">
<style type="text/css">
	.st0{fill:#FFFFFF;}
</style>
<g>
	<path class="st0" d="M12,0C5.4,0,0,5.4,0,12s5.4,12,12,12s12-5.4,12-12S18.6,0,12,0z M12,22C6.5,22,2,17.5,2,12S6.5,2,12,2
		s10,4.5,10,10S17.5,22,12,22z"/>
	<path class="st0" d="M12,7c1.1,0,2,0.9,2,2h2c0-1.9-1.3-3.4-3-3.9V4h-2v1.1C9.3,5.6,8,7.1,8,9c0,2.2,1.8,4,4,4c1.1,0,2,0.9,2,2
		s-0.9,2-2,2s-2-0.9-2-2H8c0,1.9,1.3,3.4,3,3.9V20h2v-1.1c1.7-0.4,3-2,3-3.9c0-2.2-1.8-4-4-4c-1.1,0-2-0.9-2-2S10.9,7,12,7z"/>
</g>
</svg>
