<?xml version="1.0" encoding="utf-8"?>
<!-- Generator: Adobe Illustrator 25.1.0, SVG Export Plug-In . SVG Version: 6.00 Build 0)  -->
<svg version="1.1" id="Layer_1" xmlns="http://www.w3.org/2000/svg" xmlns:xlink="http://www.w3.org/1999/xlink" x="0px" y="0px"
	 viewBox="0 0 27.7 27.7" style="enable-background:new 0 0 27.7 27.7;" xml:space="preserve">
<g>
	<path d="M22.6,3.9H18V3.1c0-1.4-1.1-2.5-2.5-2.5h-3.3c-1.4,0-2.5,1.1-2.5,2.5v0.8H5.1C4,3.9,3.1,4.8,3.1,6v2.9
		c0,0.5,0.4,0.8,0.8,0.8h0.5l0.7,15.1c0.1,1.3,1.2,2.4,2.5,2.4h12.6c1.3,0,2.4-1,2.5-2.4l0.7-15.1h0.5c0.5,0,0.8-0.4,0.8-0.8V6
		C24.6,4.8,23.7,3.9,22.6,3.9L22.6,3.9z M11.4,3.1c0-0.5,0.4-0.8,0.8-0.8h3.3c0.5,0,0.8,0.4,0.8,0.8v0.8h-5V3.1z M4.7,6
		c0-0.2,0.2-0.4,0.4-0.4h17.4C22.8,5.6,23,5.7,23,6V8C22.7,8,5.8,8,4.7,8V6z M21,24.7c0,0.4-0.4,0.8-0.8,0.8H7.6
		c-0.4,0-0.8-0.3-0.8-0.8L6,9.7h15.7L21,24.7z"/>
	<path d="M13.9,23.8c0.5,0,0.8-0.4,0.8-0.8V12.2c0-0.5-0.4-0.8-0.8-0.8S13,11.7,13,12.2V23C13,23.4,13.4,23.8,13.9,23.8z"/>
	<path d="M18,23.8c0.5,0,0.8-0.4,0.8-0.8V12.2c0-0.5-0.4-0.8-0.8-0.8c-0.5,0-0.8,0.4-0.8,0.8V23C17.2,23.4,17.5,23.8,18,23.8z"/>
	<path d="M9.7,23.8c0.5,0,0.8-0.4,0.8-0.8V12.2c0-0.5-0.4-0.8-0.8-0.8c-0.5,0-0.8,0.4-0.8,0.8V23C8.9,23.4,9.2,23.8,9.7,23.8z"/>
</g>
</svg>
