<svg id="Layer_3" enable-background="new 0 0 64 64" height="512" viewBox="0 0 64 64" width="512" xmlns="http://www.w3.org/2000/svg"><path d="m54.707 45.293c-1.457-1.457-3.475-2.293-5.535-2.293h-9.172v-3.527c2.835-1.983 4.903-4.984 5.668-8.473h.332c2.206 0 4-1.794 4-4s-1.794-4-4-4v-9.586l2.646-2.646c.874-.874 1.354-2.034 1.354-3.268s-.48-2.394-1.354-3.268c-2.084-2.084-4.855-3.232-7.803-3.232h-17.686c-2.948 0-5.72 1.148-7.804 3.232-.873.874-1.353 2.034-1.353 3.268s.48 2.394 1.354 3.268l2.646 2.646v9.586c-2.206 0-4 1.794-4 4s1.794 4 4 4h.332c.765 3.488 2.833 6.49 5.668 8.473v3.527h-9.172c-2.061 0-4.078.836-5.535 2.293s-2.293 3.475-2.293 5.535v11.172c0 .553.447 1 1 1h48c.553 0 1-.447 1-1v-11.172c0-2.06-.836-4.078-2.293-5.535zm-12.121-.293-7.586 7.586-1.586-1.586 6-6zm1.414-29h-24v-2h24zm-24 2h24v.586l-3.414 3.414h-17.172l-3.414-3.414zm28 9c0 1.103-.897 2-2 2h-.051c.024-.332.051-.662.051-1v-3c1.103 0 2 .897 2 2zm-32-19.5c0-.7.272-1.358.768-1.854 1.706-1.706 3.975-2.646 6.389-2.646h17.686c2.414 0 4.684.94 6.39 2.646.495.496.767 1.154.767 1.854s-.272 1.358-.768 1.854l-2.646 2.646h-25.172l-2.646-2.646c-.496-.496-.768-1.154-.768-1.854zm2 21.5c-1.103 0-2-.897-2-2s.897-2 2-2v3c0 .338.027.668.051 1zm2-1v-6.586l2.293 2.293c.187.188.441.293.707.293h18c.266 0 .52-.105.707-.293l2.293-2.293v6.586c0 6.617-5.383 12-12 12s-12-5.383-12-12zm12 14c2.149 0 4.178-.501 6-1.37v2.956l-6 6-6-6v-2.956c1.822.869 3.851 1.37 6 1.37zm-7.414 3 6 6-1.586 1.586-7.586-7.586zm-15.586 5.828c0-1.534.622-3.036 1.707-4.121s2.587-1.707 4.121-1.707h3.758l9.707 9.707c.391.391 1.023.391 1.414 0l1.293-1.293v7.586h-22zm46 10.172h-22v-7.586l1.293 1.293c.195.195.451.293.707.293s.512-.098.707-.293l9.707-9.707h3.758c1.534 0 3.036.622 4.121 1.707s1.707 2.587 1.707 4.121z"/><path d="m50 51h-6c-.553 0-1 .447-1 1v4c0 .553.447 1 1 1h6c.553 0 1-.447 1-1v-4c0-.553-.447-1-1-1zm-1 4h-4v-2h4z"/><path d="m37 33h-2c0 1.654-1.346 3-3 3s-3-1.346-3-3h-2c0 2.757 2.243 5 5 5s5-2.243 5-5z"/><path d="m24 26h2v4h-2z"/><path d="m38 26h2v4h-2z"/></svg>