<?xml version="1.0" encoding="utf-8"?>
<!-- Generator: Adobe Illustrator 24.0.1, SVG Export Plug-In . SVG Version: 6.00 Build 0)  -->
<svg version="1.1" id="Capa_1" xmlns="http://www.w3.org/2000/svg" xmlns:xlink="http://www.w3.org/1999/xlink" x="0px" y="0px"
	 viewBox="0 0 603.6 523.9" style="enable-background:new 0 0 603.6 523.9;" xml:space="preserve">
<style type="text/css">
	.st0{fill:#FFFFFF;}
	.st1{font-family:'MyriadPro-Regular';}
	.st2{font-size:180px;}
</style>
<path class="st0" d="M547.2,136h-54.5l-14.2-87.7c-2.4-19-23.7-33.2-42.7-30.8l-389,68.7c-21.3,4.7-33.2,23.7-30.8,45.1L58.6,366
	c2.4,9.5,7.1,19,14.2,23.7s14.2,7.1,21.3,7.1c2.4,0,4.7,0,7.1,0l14.2-2.4v19c0,21.3,16.6,37.9,37.9,37.9h396
	c21.3,0,37.9-16.6,37.9-37.9V171.5C585.1,152.6,568.5,136,547.2,136z M549.5,171.5v35.6H151.1l2.4-35.6H549.5z M94.2,358.9
	L58.6,162.1l-4.7-40.3l391.3-66.4l14.2,80.6H153.5c-21.3,0-37.9,16.6-37.9,37.9v185H94.2z M547.2,413.4l-396-2.4V271.1h398.4
	L547.2,413.4C549.5,411.1,549.5,413.4,547.2,413.4z"/>
<g>
	<g>
		<ellipse cx="153.1" cy="376" rx="123.1" ry="123.1"/>
		<path class="st0" d="M153.1,270c58.6,0,106,47.4,106,106s-47.4,106-106,106s-106-47.4-106-106S94.6,270,153.1,270 M153.1,235.9
			c-37.4,0-72.6,14.5-99,41c-26.4,26.4-41,61.6-41,99s14.5,72.6,41,99c26.4,26.4,61.6,41,99,41s72.6-14.5,99-41
			c26.4-26.4,41-61.6,41-99s-14.5-72.6-41-99C225.7,250.6,190.5,235.9,153.1,235.9L153.1,235.9z"/>
	</g>
	<text transform="matrix(1 0 0 1 111.4675 428.7357)" class="st0 st1 st2">x</text>
</g>
</svg>
