<?xml version="1.0" encoding="utf-8"?>
<!-- Generator: Adobe Illustrator 24.0.1, SVG Export Plug-In . SVG Version: 6.00 Build 0)  -->
<svg version="1.1" id="Icons" xmlns="http://www.w3.org/2000/svg" xmlns:xlink="http://www.w3.org/1999/xlink" x="0px" y="0px"
	 viewBox="0 0 29.9 27.2" style="enable-background:new 0 0 29.9 27.2;" xml:space="preserve">
<style type="text/css">
	.st0{fill:none;stroke:#FFFFFF;stroke-width:2;stroke-linejoin:round;stroke-miterlimit:10;}
	.st1{fill:none;stroke:#FFFFFF;stroke-width:2;stroke-miterlimit:10;}
</style>
<line class="st0" x1="1.8" y1="8.1" x2="27.8" y2="8.1"/>
<line class="st0" x1="3.8" y1="5.1" x2="5.8" y2="5.1"/>
<line class="st0" x1="6.8" y1="5.1" x2="8.8" y2="5.1"/>
<line class="st0" x1="9.8" y1="5.1" x2="11.8" y2="5.1"/>
<path class="st0" d="M7.6,24.1H1.8v-22h26v22H22c0.3-0.1,0.6-0.1,0.9-0.1c0.1-0.6,0.2-1.3,0.2-1.9c0-0.7-0.1-1.3-0.2-1.9
	c-1,0.1-2-0.3-2.5-1.3c-0.5-0.9-0.4-2,0.2-2.8c-0.9-0.9-2.1-1.6-3.4-2c-0.4,0.9-1.3,1.6-2.4,1.6s-2-0.7-2.4-1.6
	c-1.3,0.4-2.4,1.1-3.4,2c0.6,0.8,0.7,1.9,0.2,2.8s-1.6,1.4-2.5,1.3c-0.1,0.6-0.2,1.3-0.2,1.9c0,0.7,0.1,1.3,0.2,1.9
	C7,24,7.3,24,7.6,24.1L7.6,24.1z"/>
<circle class="st1" cx="14.8" cy="22.1" r="3"/>
</svg>
