<?xml version="1.0" encoding="utf-8"?>
<!-- Generator: Adobe Illustrator 25.0.1, SVG Export Plug-In . SVG Version: 6.00 Build 0)  -->
<svg version="1.1" id="Layer_59" xmlns="http://www.w3.org/2000/svg" xmlns:xlink="http://www.w3.org/1999/xlink" x="0px" y="0px"
	 viewBox="0 0 209.3 209.3" style="enable-background:new 0 0 209.3 209.3;" xml:space="preserve">
<style type="text/css">
	.st0{fill:#FFFFFF;}
</style>
<path class="st0" d="M203.5,139.1c3.8-10.8,5.8-22.4,5.8-34.4s-2.1-23.6-5.8-34.4c-0.1-0.3-0.2-0.6-0.3-0.9
	C188.6,28.9,149.9,0,104.6,0S20.7,28.9,6.2,69.3c-0.1,0.3-0.2,0.6-0.3,0.9C2.1,81,0,92.6,0,104.6s2.1,23.6,5.8,34.4
	c0.1,0.3,0.2,0.6,0.3,0.9c14.5,40.3,53.2,69.3,98.5,69.3s83.9-28.9,98.5-69.3C203.3,139.7,203.4,139.4,203.5,139.1z M104.6,194.3
	c-4,0-10.4-7.2-15.8-23.3c-2.6-7.8-4.7-16.7-6.2-26.4h43.9c-1.5,9.7-3.6,18.7-6.2,26.4C115.1,187.1,108.6,194.3,104.6,194.3z
	 M80.9,129.5c-0.7-8-1.1-16.3-1.1-24.9s0.4-16.9,1.1-24.9h47.6c0.7,8,1.1,16.3,1.1,24.9s-0.4,16.9-1.1,24.9H80.9z M15,104.6
	c0-8.6,1.2-17,3.5-24.9h47.3c-0.7,8.2-1.1,16.5-1.1,24.9s0.4,16.7,1.1,24.9H18.5C16.2,121.6,15,113.3,15,104.6z M104.6,15
	c4,0,10.4,7.2,15.8,23.3c2.6,7.8,4.7,16.7,6.2,26.4H82.7c1.5-9.7,3.6-18.7,6.2-26.4C94.2,22.2,100.7,15,104.6,15z M143.5,79.8h47.3
	c2.3,7.9,3.5,16.3,3.5,24.9s-1.2,17-3.5,24.9h-47.3c0.7-8.2,1.1-16.5,1.1-24.9S144.2,87.9,143.5,79.8z M184.9,64.8h-43.2
	c-2.7-18.4-7.2-34.9-13.7-46.6C153,24.9,173.6,42.1,184.9,64.8z M81.2,18.1c-6.4,11.7-11,28.2-13.7,46.6H24.4
	C35.7,42.1,56.3,24.9,81.2,18.1z M24.4,144.5h43.2c2.7,18.4,7.2,34.9,13.7,46.6C56.3,184.4,35.7,167.2,24.4,144.5z M128.1,191.2
	c6.4-11.7,11-28.2,13.7-46.6h43.2C173.6,167.2,153,184.4,128.1,191.2z"/>
</svg>
