<?xml version="1.0" encoding="utf-8"?>
<!-- Generator: Adobe Illustrator 24.0.1, SVG Export Plug-In . SVG Version: 6.00 Build 0)  -->
<svg version="1.1" id="Layer_1" xmlns="http://www.w3.org/2000/svg" xmlns:xlink="http://www.w3.org/1999/xlink" x="0px" y="0px"
	 viewBox="0 0 32 32" style="enable-background:new 0 0 32 32;" xml:space="preserve">
<style type="text/css">
	.st0{fill-rule:evenodd;clip-rule:evenodd;fill:#FFFFFF;}
</style>
<g id="location">
	<path class="st0" d="M16,17.7c3.3,0,6-2.7,6-6s-2.7-6-6-6s-6,2.7-6,6S12.7,17.7,16,17.7z M16,6.7c2.8,0,5,2.2,5,5s-2.2,5-5,5
		s-5-2.2-5-5S13.2,6.7,16,6.7z"/>
	<path class="st0" d="M16,0C9.4,0,4,5.3,4,12c0,7,6,14.2,10.4,19.2c0,0,0.7,0.8,1.6,0.8c0,0,0.1,0,0.1,0c0.9,0,1.6-0.8,1.6-0.8
		C22,26.2,28,19,28,12C28,5.3,22.6,0,16,0z M16.1,29.9c0,0-0.1,0.1-0.1,0.1c0,0-0.1-0.1-0.1-0.1C12.2,25.6,6,18.5,6,12
		C6,6.5,10.5,2,16,2c5.5,0,10,4.5,10,10C26,18.5,19.8,25.6,16.1,29.9z"/>
</g>
</svg>
