<?xml version="1.0" encoding="utf-8"?>
<!-- Generator: Adobe Illustrator 24.0.1, SVG Export Plug-In . SVG Version: 6.00 Build 0)  -->
<svg version="1.1" id="Layer_1" xmlns="http://www.w3.org/2000/svg" xmlns:xlink="http://www.w3.org/1999/xlink" x="0px" y="0px"
	 viewBox="0 0 24 24" style="enable-background:new 0 0 24 24;" xml:space="preserve">
<style type="text/css">
	.st0{fill:#FFFFFF;}
</style>
<g>
	<path class="st0" d="M22.9,0H1.1C0.5,0,0,0.5,0,1.1v21.8C0,23.5,0.5,24,1.1,24h21.8c0.6,0,1.1-0.5,1.1-1.1V1.1
		C24,0.5,23.5,0,22.9,0z M22,22H2V7h20V22z M22,6H2V2h20V6z"/>
	<circle class="st0" cx="4" cy="4" r="1"/>
	<circle class="st0" cx="7" cy="4" r="1"/>
	<circle class="st0" cx="10" cy="4" r="1"/>
	<rect x="4" y="17" class="st0" width="16" height="1"/>
	<rect x="4" y="19" class="st0" width="16" height="1"/>
	<rect x="4" y="15" class="st0" width="16" height="1"/>
	<path class="st0" d="M4,9v5h16V9H4z M19,13H5v-3h14V13z"/>
</g>
</svg>
