<?xml version="1.0" encoding="utf-8"?>
<!-- Generator: Adobe Illustrator 24.0.1, SVG Export Plug-In . SVG Version: 6.00 Build 0)  -->
<svg version="1.1" id="Layer_1" xmlns="http://www.w3.org/2000/svg" xmlns:xlink="http://www.w3.org/1999/xlink" x="0px" y="0px"
	 viewBox="0 0 480 519.7" style="enable-background:new 0 0 480 519.7;" xml:space="preserve">
<style type="text/css">
	.st0{fill:#FFFFFF;}
</style>
<g>
	<path class="st0" d="M104.2,307.2V188.4c0-24.8,9.8-48.5,27.3-66.1C149,104.8,172.8,95,197.6,95h84.9c51.5,0.1,93.3,41.8,93.4,93.4
		v152.8h17V188.4c-0.1-55.8-41.7-102.7-97.1-109.5L324,22.4c1.3-2.6,1.2-5.8-0.4-8.3c-1.6-2.5-4.3-4-7.2-4H163.6c-3,0-5.7,1.5-7.3,4
		c-1.6,2.5-1.7,5.6-0.4,8.3l28.3,56.5c-55.4,6.6-97.2,53.7-97.1,109.5v118.8H104.2z M177.3,27.1l125.3,0L277.2,78h-74.4L177.3,27.1z
		"/>
	<path class="st0" d="M480,394.5v-0.9c0-13.8-6.5-26.8-17.6-35.1c-13-10-30.6-11.7-45.3-4.3l-98.9,49.6c3.8-12.2,1.6-25.4-5.9-35.7
		c-7.5-10.3-19.5-16.3-32.3-16.3h-60.7c-35.4-22.4-79.5-26.3-118.3-10.4c-11.1,4.4-21.5,10.4-30.8,17.7l-0.9,0.7H8c-4.4,0-8,3.6-8,8
		l0,144c0,4.4,3.6,8,8,8h263.5c17.4,0,34.6-4.4,49.8-12.7l135.8-74.1C471.3,425.2,480,410.5,480,394.5z M64,503.7H16v-128h48V503.7z
		 M464,394.5c0,10.1-5.5,19.5-14.4,24.3l-135.9,74.1c-12.9,7.1-27.4,10.8-42.2,10.8H80V371.5c8.2-6.4,17.3-11.6,27-15.5
		c34.7-14.2,74.3-10.4,105.6,10.3c1.3,0.9,2.8,1.3,4.4,1.3h63c13.3,0,24,10.7,24,24s-10.7,24-24,24H176v16h120
		c1.2,0,2.5-0.3,3.6-0.8l124.6-62.4c9.1-4.6,20-3.6,28.2,2.5c7.2,5.3,11.5,13.7,11.6,22.6V394.5z"/>
	<path class="st0" d="M48,479.7H32v-16h16V479.7z"/>
	<path class="st0" d="M248,283.7v-16h8c17.7,0,32-14.3,32-32s-14.3-32-32-32h-32c-8.8,0-16-7.2-16-16s7.2-16,16-16h56v-16h-32v-16
		h-16v16h-8c-17.7,0-32,14.3-32,32s14.3,32,32,32h32c8.8,0,16,7.2,16,16s-7.2,16-16,16h-56v16h32v16H248z"/>
</g>
<g>
	<path class="st0" d="M104.2,307.2V188.4c0-24.8,9.8-48.5,27.3-66.1C149,104.8,172.8,95,197.6,95h84.9c51.5,0.1,93.3,41.8,93.4,93.4
		v152.8h17V188.4c-0.1-55.8-41.7-102.7-97.1-109.5L324,22.4c1.3-2.6,1.2-5.8-0.4-8.3c-1.6-2.5-4.3-4-7.2-4H163.6c-3,0-5.7,1.5-7.3,4
		c-1.6,2.5-1.7,5.6-0.4,8.3l28.3,56.5c-55.4,6.6-97.2,53.7-97.1,109.5v118.8H104.2z M177.3,27.1l125.3,0L277.2,78h-74.4L177.3,27.1z
		"/>
	<path class="st0" d="M480,394.5v-0.9c0-13.8-6.5-26.8-17.6-35.1c-13-10-30.6-11.7-45.3-4.3l-98.9,49.6c3.8-12.2,1.6-25.4-5.9-35.7
		c-7.5-10.3-19.5-16.3-32.3-16.3h-60.7c-35.4-22.4-79.5-26.3-118.3-10.4c-11.1,4.4-21.5,10.4-30.8,17.7l-0.9,0.7H8c-4.4,0-8,3.6-8,8
		l0,144c0,4.4,3.6,8,8,8h263.5c17.4,0,34.6-4.4,49.8-12.7l135.8-74.1C471.3,425.2,480,410.5,480,394.5z M64,503.7H16v-128h48V503.7z
		 M464,394.5c0,10.1-5.5,19.5-14.4,24.3l-135.9,74.1c-12.9,7.1-27.4,10.8-42.2,10.8H80V371.5c8.2-6.4,17.3-11.6,27-15.5
		c34.7-14.2,74.3-10.4,105.6,10.3c1.3,0.9,2.8,1.3,4.4,1.3h63c13.3,0,24,10.7,24,24s-10.7,24-24,24H176v16h120
		c1.2,0,2.5-0.3,3.6-0.8l124.6-62.4c9.1-4.6,20-3.6,28.2,2.5c7.2,5.3,11.5,13.7,11.6,22.6V394.5z"/>
	<path class="st0" d="M48,479.7H32v-16h16V479.7z"/>
	<path class="st0" d="M248,283.7v-16h8c17.7,0,32-14.3,32-32s-14.3-32-32-32h-32c-8.8,0-16-7.2-16-16s7.2-16,16-16h56v-16h-32v-16
		h-16v16h-8c-17.7,0-32,14.3-32,32s14.3,32,32,32h32c8.8,0,16,7.2,16,16s-7.2,16-16,16h-56v16h32v16H248z"/>
</g>
</svg>
