<?xml version="1.0" encoding="utf-8"?>
<!-- Generator: Adobe Illustrator 24.0.1, SVG Export Plug-In . SVG Version: 6.00 Build 0)  -->
<svg version="1.1" id="Слой_1" xmlns="http://www.w3.org/2000/svg" xmlns:xlink="http://www.w3.org/1999/xlink" x="0px" y="0px"
	 viewBox="0 0 26 26" style="enable-background:new 0 0 26 26;" xml:space="preserve">
<style type="text/css">
	.st0{fill:#FFFFFF;}
</style>
<path class="st0" d="M23.4,8.9h-2.3l-0.6-3.7c-0.1-0.8-1-1.4-1.8-1.3L2.3,6.8C1.4,7,0.9,7.8,1,8.7l1.8,9.9c0.1,0.4,0.3,0.8,0.6,1
	c0.3,0.2,0.6,0.3,0.9,0.3c0.1,0,0.2,0,0.3,0l0.6-0.1v0.8c0,0.9,0.7,1.6,1.6,1.6h16.7c0.9,0,1.6-0.7,1.6-1.6V10.4
	C25,9.6,24.3,8.9,23.4,8.9z M23.5,10.4v1.5H6.7l0.1-1.5L23.5,10.4z M4.3,18.3L2.8,10L2.6,8.3l16.5-2.8l0.6,3.4H6.8
	c-0.9,0-1.6,0.7-1.6,1.6v7.8L4.3,18.3z M23.4,20.6L6.7,20.5v-5.9h16.8L23.4,20.6C23.5,20.5,23.5,20.6,23.4,20.6z"/>
</svg>
