<?xml version="1.0" encoding="utf-8"?>
<!-- Generator: Adobe Illustrator 25.1.0, SVG Export Plug-In . SVG Version: 6.00 Build 0)  -->
<svg version="1.1" id="Layer_1" xmlns="http://www.w3.org/2000/svg" xmlns:xlink="http://www.w3.org/1999/xlink" x="0px" y="0px"
	 viewBox="0 0 24.8 24.8" style="enable-background:new 0 0 24.8 24.8;" xml:space="preserve">
<style type="text/css">
	.st0{fill:#FFFFFF;}
</style>
<path class="st0" d="M12.4,24.3L0.5,12.4L12.4,0.5l11.9,11.9L12.4,24.3z M2.5,12.4l9.9,9.9l9.9-9.9l-9.9-9.9L2.5,12.4z"/>
<path class="st0" d="M14.4,14.4h-3.9V6.3h3.9V14.4z M11.8,13.1H13V7.7h-1.2V13.1z"/>
<path class="st0" d="M12.4,19.4c-1.1,0-2-0.9-2-2c0-1.1,0.9-2,2-2s2,0.9,2,2C14.4,18.5,13.5,19.4,12.4,19.4L12.4,19.4z M12.4,16.8
	c-0.3,0-0.6,0.3-0.6,0.6c0,0.3,0.3,0.6,0.6,0.6c0.3,0,0.6-0.3,0.6-0.6C13,17.1,12.7,16.8,12.4,16.8z"/>
</svg>
