<?xml version="1.0" encoding="utf-8"?>
<!-- Generator: Adobe Illustrator 25.1.0, SVG Export Plug-In . SVG Version: 6.00 Build 0)  -->
<svg version="1.1" id="Layer_1" xmlns="http://www.w3.org/2000/svg" xmlns:xlink="http://www.w3.org/1999/xlink" x="0px" y="0px"
	 viewBox="0 0 23.2 22.9" style="enable-background:new 0 0 23.2 22.9;" xml:space="preserve">
<style type="text/css">
	.st0{fill:#FFFFFF;}
</style>
<g id="parking-time" transform="translate(0 -0.33)">
	<g id="Group_15" transform="translate(0 0.33)">
		<path id="Path_9" class="st0" d="M16.7,14.2c-0.1-0.4-0.4-0.7-0.9-0.7h-0.3l-0.1-0.9c-0.7-0.2-1.4-0.5-2-0.9l0.2,1.8H3.9l0.2-1.8
			c0.1-1.2,1.1-2.1,2.3-2.1h0.3v0.3c0,0.5,0.4,0.9,0.9,0.9c0,0,0,0,0,0H10c0.5,0,0.9-0.4,0.9-0.9c0,0,0,0,0,0V9.5h0.3
			c0.1,0,0.1,0,0.2,0c-0.4-0.6-0.7-1.3-0.8-2H6.4c-2.2,0-4.1,1.7-4.3,3.9l-0.2,2H1.6c-0.4,0-0.8,0.3-0.9,0.7L0,18.4
			c-0.1,0.5,0.1,1.1,0.4,1.5c0.3,0.4,0.8,0.6,1.3,0.6v0.7c0,1,0.8,1.8,1.8,1.8h0.6c1,0,1.8-0.8,1.8-1.8c0,0,0,0,0,0v-0.7h5.8v0.7
			c0,1,0.8,1.8,1.8,1.8c0,0,0,0,0,0H14c1,0,1.8-0.8,1.8-1.8c0,0,0,0,0,0v-0.7c0.5,0,1-0.3,1.3-0.6c0.3-0.4,0.5-0.9,0.4-1.5
			L16.7,14.2z M3.3,18.8c-0.8,0-1.5-0.7-1.5-1.5c0-0.8,0.7-1.5,1.5-1.5c0.8,0,1.5,0.7,1.5,1.5c0,0,0,0,0,0
			C4.8,18.2,4.1,18.8,3.3,18.8z M14.2,18.8c-0.8,0-1.5-0.7-1.5-1.5c0-0.8,0.7-1.5,1.5-1.5c0.8,0,1.5,0.7,1.5,1.5c0,0,0,0,0,0
			C15.7,18.2,15,18.8,14.2,18.8C14.2,18.8,14.2,18.8,14.2,18.8L14.2,18.8z"/>
		<path id="Path_10" class="st0" d="M17.1,0C13.8,0,11,2.7,11,6.1s2.7,6.1,6.1,6.1s6.1-2.7,6.1-6.1C23.2,2.7,20.5,0,17.1,0z
			 M17.1,10c-2.2,0-3.9-1.7-3.9-3.9c0-2.2,1.7-3.9,3.9-3.9S21,4,21,6.1v0C21,8.3,19.3,10,17.1,10z"/>
		<path id="Path_11" class="st0" d="M19.3,5.5h-1.5v-2c0-0.4-0.3-0.7-0.7-0.7s-0.7,0.3-0.7,0.7v2.1C16.4,6.4,17,7,17.7,7h1.6
			c0.4,0,0.7-0.3,0.7-0.7S19.7,5.5,19.3,5.5L19.3,5.5z"/>
	</g>
</g>
</svg>
