<?xml version="1.0" encoding="utf-8"?>
<!-- Generator: Adobe Illustrator 24.0.1, SVG Export Plug-In . SVG Version: 6.00 Build 0)  -->
<svg version="1.1" id="Layer_1" xmlns="http://www.w3.org/2000/svg" xmlns:xlink="http://www.w3.org/1999/xlink" x="0px" y="0px"
	 viewBox="0 0 32 32" style="enable-background:new 0 0 32 32;" xml:space="preserve">
<style type="text/css">
	.st0{fill:#FFFFFF;}
</style>
<title></title>
<g>
	<g id="_2">
		<path id="bell_ring_notification_alarm" class="st0" d="M29.1,25.3c-1.2,0-2.2-1-2.2-2.2v-9.8c0-5.6-4.3-10.3-9.8-10.8V0.2h-2.2
			v2.2C9.3,3,5.1,7.7,5.1,13.3v9.8c0,1.2-1,2.2-2.2,2.2H2.4v2.2h10.6c-0.7,1.7,0.2,3.6,2,4.1c1.7,0.7,3.6-0.2,4.1-2
			c0.2-0.8,0.2-1.5,0-2.2h10.6v-2.2H29.1z M7.3,23.1v-9.8c0-4.8,3.9-8.7,8.7-8.7s8.7,3.9,8.7,8.7v9.8c0,0.8,0.2,1.5,0.7,2.2H6.6
			C7.1,24.6,7.3,23.9,7.3,23.1z M17.1,28.5c0,0.7-0.4,1.1-1.1,1.1s-1.1-0.4-1.1-1.1c0-0.7,0.4-1.1,1.1-1.1S17.1,27.9,17.1,28.5z"/>
	</g>
	<g id="Layer_1_1_">
		<path class="st0" d="M16.1,12c-0.3,0.3-0.3,0.9,0,1.2l2,2h-6.5c-0.4,0-0.9,0.4-0.9,0.9s0.4,0.9,0.9,0.9h6.5l-2,2
			c-0.3,0.3-0.3,0.9,0,1.2c0.2,0.2,0.4,0.2,0.7,0.2c0.2,0,0.4-0.1,0.7-0.2l4-4l-4-4C17,11.6,16.4,11.6,16.1,12z"/>
	</g>
</g>
</svg>
