<?xml version="1.0" encoding="utf-8"?>
<!-- Generator: Adobe Illustrator 24.0.1, SVG Export Plug-In . SVG Version: 6.00 Build 0)  -->
<svg version="1.1" id="Layer_1" xmlns="http://www.w3.org/2000/svg" xmlns:xlink="http://www.w3.org/1999/xlink" x="0px" y="0px"
	 viewBox="0 0 91 91" style="enable-background:new 0 0 91 91;" xml:space="preserve">
<style type="text/css">
	.st0{fill:#FFFFFF;}
</style>
<g>
	<g>
		<g>
			<g>
				<path class="st0" d="M46.4,47.1c-4.8,0-8.7,3.9-8.7,8.7c0,4.8,3.9,8.8,8.7,8.8c4.8,0,8.8-3.9,8.8-8.8
					C55.1,51,51.2,47.1,46.4,47.1z M46.4,59.5c-2.1,0-3.7-1.7-3.7-3.7c0-2.1,1.7-3.7,3.7-3.7s3.7,1.7,3.7,3.7
					C50.1,57.9,48.4,59.5,46.4,59.5z"/>
				<path class="st0" d="M67.3,49.6l-5.1-8.9c-0.3-0.6-0.9-1-1.5-1.2c-0.6-0.2-1.3-0.1-1.9,0.3l-3.5,2c-0.4-0.2-0.8-0.5-1.2-0.7
					v-4.1c0-1.4-1.1-2.5-2.5-2.5H41.2c-1.4,0-2.5,1.1-2.5,2.5v4.1c-0.3,0.2-0.7,0.4-1,0.6l-3.5-2.1c-0.6-0.3-1.3-0.4-1.9-0.3
					s-1.2,0.6-1.5,1.2l-5.2,8.8c-0.7,1.2-0.3,2.7,0.9,3.4l3.5,2.1c0,0.3,0,0.6,0,0.9c0,0.2,0,0.5,0,0.7l-3.5,2
					c-0.6,0.3-1,0.9-1.2,1.5c-0.2,0.6-0.1,1.3,0.3,1.9l5.1,8.9c0.7,1.2,2.2,1.6,3.4,0.9l3.6-2c0.4,0.2,0.8,0.5,1.2,0.7v4.1
					c0,1.4,1.1,2.5,2.5,2.5h10.3c1.4,0,2.5-1.1,2.5-2.5v-4.1c0.3-0.2,0.7-0.4,1-0.6l3.5,2.1c1.2,0.7,2.7,0.3,3.4-0.9l5.2-8.8
					c0.7-1.2,0.3-2.7-0.9-3.4l-3.5-2.1c0-0.3,0-0.6,0-0.9c0-0.2,0-0.5,0-0.7l3.5-2C67.6,52.4,68,50.8,67.3,49.6z M57.7,54.1
					c0.1,0.7,0.1,1.2,0.1,1.7c0,0.5-0.1,1.1-0.2,1.8c-0.2,1,0.3,2,1.2,2.6l2.8,1.6L59,66.3l-2.8-1.6c-0.9-0.5-2-0.5-2.8,0.2
					c-0.8,0.7-1.8,1.2-2.8,1.6c-1,0.4-1.6,1.3-1.6,2.3V72h-5.2v-3.2c0-1-0.6-2-1.6-2.3c-1.1-0.4-2-1-2.9-1.7
					c-0.8-0.6-1.9-0.7-2.8-0.2l-2.8,1.6L31,61.6l2.8-1.6c0.9-0.5,1.4-1.5,1.2-2.5c-0.1-0.6-0.1-1.2-0.1-1.7c0-0.5,0-1.1,0.2-1.8
					c0.2-1-0.3-2-1.2-2.5l-2.8-1.6l2.7-4.5l2.7,1.6c0.9,0.5,2,0.5,2.8-0.2c0.9-0.7,1.8-1.2,2.8-1.6c1-0.4,1.6-1.3,1.6-2.3v-3.2H49
					v3.2c0,1,0.6,2,1.6,2.3c1,0.4,2,1,2.9,1.7c0.8,0.6,1.9,0.7,2.8,0.2l2.8-1.6l2.6,4.5l-2.8,1.6C58,52.1,57.5,53.1,57.7,54.1z"/>
				<path class="st0" d="M26.8,20.7H27c1.4,0,2.5-1.1,2.5-2.5c0-1.4-1.1-2.5-2.5-2.5h-0.2c-1.4,0-2.5,1.1-2.5,2.5
					C24.3,19.6,25.4,20.7,26.8,20.7z"/>
				<path class="st0" d="M15.4,20.7h0.2c1.4,0,2.5-1.1,2.5-2.5c0-1.4-1.1-2.5-2.5-2.5h-0.2c-1.4,0-2.5,1.1-2.5,2.5
					C12.9,19.6,14.1,20.7,15.4,20.7z"/>
				<path class="st0" d="M38.2,20.7h0.2c1.4,0,2.5-1.1,2.5-2.5c0-1.4-1.1-2.5-2.5-2.5h-0.2c-1.4,0-2.5,1.1-2.5,2.5
					C35.7,19.6,36.8,20.7,38.2,20.7z"/>
				<path class="st0" d="M0.3,83.4c0,1.4,1.1,2.5,2.5,2.5h77.5c5.8,0,10.5-4.7,10.5-10.5V28.2v0V8.1c0-1.4-1.1-2.5-2.5-2.5H2.8
					c-1.4,0-2.5,1.1-2.5,2.5v20.1c0,0,0,0,0,0L0.3,83.4L0.3,83.4z M80.2,80.9H5.3V30.8h80.4v44.7C85.7,78.4,83.2,80.9,80.2,80.9z
					 M85.7,10.7v15.1H5.3V10.7H85.7z"/>
			</g>
		</g>
	</g>
</g>
</svg>
