<?xml version="1.0" encoding="utf-8"?>
<!-- Generator: Adobe Illustrator 24.0.1, SVG Export Plug-In . SVG Version: 6.00 Build 0)  -->
<svg version="1.1" id="Layer_1" xmlns="http://www.w3.org/2000/svg" xmlns:xlink="http://www.w3.org/1999/xlink" x="0px" y="0px"
	 viewBox="0 0 50 50" style="enable-background:new 0 0 50 50;" xml:space="preserve">
<style type="text/css">
	.st0{fill:#FFFFFF;}
</style>
<g id="Layer_1_1_">
	<path class="st0" d="M5,7v42h34v-6h6V1H11v6H5z M37,47H7V9h4h19v7h7v27V47z M32,10.4l3.6,3.6H32V10.4z M13,3h30v38h-4V14.6L31.4,7
		H13V3z"/>
	<rect x="11" y="20" class="st0" width="22" height="2"/>
	<rect x="11" y="26" class="st0" width="22" height="2"/>
	<rect x="11" y="32" class="st0" width="22" height="2"/>
	<rect x="11" y="40" class="st0" width="9" height="2"/>
	<rect x="24" y="40" class="st0" width="9" height="2"/>
	<rect x="18" y="14" class="st0" width="8" height="2"/>
</g>
</svg>
