<svg id="Capa_1" enable-background="new 0 0 512 512" height="512" viewBox="0 0 512 512" width="512" xmlns="http://www.w3.org/2000/svg"><path d="m256 512c-68.38 0-132.667-26.629-181.02-74.98-48.351-48.353-74.98-112.64-74.98-181.02s26.629-132.667 74.98-181.02c48.353-48.351 112.64-74.98 181.02-74.98s132.667 26.629 181.02 74.98c48.351 48.353 74.98 112.64 74.98 181.02s-26.629 132.667-74.98 181.02c-48.353 48.351-112.64 74.98-181.02 74.98zm0-482c-60.367 0-117.12 23.508-159.806 66.194s-66.194 99.439-66.194 159.806 23.508 117.12 66.194 159.806 99.439 66.194 159.806 66.194 117.12-23.508 159.806-66.194 66.194-99.439 66.194-159.806-23.508-117.12-66.194-159.806-99.439-66.194-159.806-66.194z"/><path d="m241 452.222-17.479-2.928c-40.295-6.751-76.965-25.69-106.045-54.77-29.081-29.081-48.02-65.75-54.77-106.045l-2.928-17.479h121.942l3.541 9.988c7.498 21.15 24.601 38.253 45.751 45.751l9.988 3.541zm-144.803-151.222c7.643 27.218 22.133 51.951 42.492 72.311 20.359 20.359 45.093 34.849 72.311 42.492v-64.936c-21.689-10.375-39.492-28.178-49.867-49.867z"/><path d="m271 452.222v-121.942l9.988-3.541c21.15-7.498 38.253-24.601 45.751-45.751l3.541-9.988h121.941l-2.928 17.479c-6.75 40.295-25.689 76.965-54.77 106.045-29.08 29.08-65.75 48.019-106.045 54.77zm30-101.355v64.936c27.218-7.643 51.952-22.133 72.311-42.492s34.849-45.093 42.492-72.311h-64.936c-10.375 21.689-28.178 39.492-49.867 49.867z"/><path d="m453.538 240.886-26.739-11.027c-.611-.25-64.571-25.889-170.799-25.889-106.793 0-170.172 25.629-170.799 25.889l-26.739 11.027 6.39-28.208c9.659-42.639 33.818-81.374 68.026-109.07 34.733-28.121 78.459-43.608 123.122-43.608s88.389 15.487 123.122 43.607c34.208 27.696 58.367 66.432 68.026 109.07zm-197.538-66.916c70.732 0 123.377 10.642 153.458 18.849-10.57-25.506-27.503-48.317-49.214-65.896-29.409-23.81-66.431-36.923-104.244-36.923s-74.835 13.113-104.244 36.924c-21.711 17.578-38.644 40.39-49.214 65.896 30.081-8.208 82.726-18.85 153.458-18.85z"/></svg>